<mxfile host="app.diagrams.net" agent="Mozilla/5.0 (Windows NT 10.0; Win64; x64) AppleWebKit/537.36 (KHTML, like Gecko) Chrome/118.0.0.0 Safari/537.36 Edg/118.0.2088.61" version="24.7.7">
  <diagram name="第 1 页" id="PCHLLe_sk1U6rp72RW6W">
    <mxGraphModel dx="746" dy="425" grid="1" gridSize="10" guides="1" tooltips="1" connect="1" arrows="1" fold="1" page="1" pageScale="1" pageWidth="827" pageHeight="1169" math="0" shadow="0">
      <root>
        <mxCell id="0" />
        <mxCell id="1" parent="0" />
        <mxCell id="ahB7fCFWOppxZNZ6RY8T-1" value="motivation" style="text;strokeColor=none;align=center;fillColor=none;html=1;verticalAlign=middle;whiteSpace=wrap;rounded=0;" vertex="1" parent="1">
          <mxGeometry x="10" y="10" width="60" height="30" as="geometry" />
        </mxCell>
        <mxCell id="ahB7fCFWOppxZNZ6RY8T-2" value="introduction" style="text;strokeColor=none;align=center;fillColor=none;html=1;verticalAlign=middle;whiteSpace=wrap;rounded=0;" vertex="1" parent="1">
          <mxGeometry x="10" y="200" width="60" height="30" as="geometry" />
        </mxCell>
        <mxCell id="ahB7fCFWOppxZNZ6RY8T-3" value="method" style="text;strokeColor=none;align=center;fillColor=none;html=1;verticalAlign=middle;whiteSpace=wrap;rounded=0;" vertex="1" parent="1">
          <mxGeometry x="10" y="330" width="60" height="30" as="geometry" />
        </mxCell>
        <mxCell id="ahB7fCFWOppxZNZ6RY8T-4" value="experiments" style="text;strokeColor=none;align=center;fillColor=none;html=1;verticalAlign=middle;whiteSpace=wrap;rounded=0;" vertex="1" parent="1">
          <mxGeometry x="10" y="470" width="60" height="30" as="geometry" />
        </mxCell>
        <mxCell id="ahB7fCFWOppxZNZ6RY8T-5" value="demo" style="text;strokeColor=none;align=center;fillColor=none;html=1;verticalAlign=middle;whiteSpace=wrap;rounded=0;" vertex="1" parent="1">
          <mxGeometry x="10" y="670" width="60" height="30" as="geometry" />
        </mxCell>
        <mxCell id="ahB7fCFWOppxZNZ6RY8T-6" value="&lt;p style=&quot;margin-top: 0pt; margin-bottom: 0pt; margin-left: 0in; direction: ltr; unicode-bidi: embed; vertical-align: middle; word-break: normal; font-size: 10px;&quot;&gt;&lt;span style=&quot;font-family: 微软雅黑; font-weight: bold;&quot;&gt;现有的&lt;/span&gt;&lt;span style=&quot;font-family: Arial; font-weight: bold;&quot;&gt;LangSplat&lt;/span&gt;&lt;span style=&quot;font-family: 微软雅黑; font-weight: bold;&quot;&gt;需要通过多张&lt;/span&gt;&lt;span style=&quot;font-family: 微软雅黑; font-weight: bold;&quot;&gt;多视角图片重建三维场景&lt;/span&gt;&lt;/p&gt;" style="text;strokeColor=none;align=center;fillColor=none;html=1;verticalAlign=middle;whiteSpace=wrap;rounded=0;" vertex="1" parent="1">
          <mxGeometry x="10" y="60" width="210" height="30" as="geometry" />
        </mxCell>
        <mxCell id="ahB7fCFWOppxZNZ6RY8T-7" value="&lt;p style=&quot;margin-top: 0pt; margin-bottom: 0pt; margin-left: 0in; text-align: center; direction: ltr; unicode-bidi: embed; vertical-align: middle; word-break: normal; font-size: 10px;&quot;&gt;&lt;span style=&quot;font-size: 10px; font-family: 微软雅黑; color: black; font-weight: bold; font-style: normal;&quot;&gt;LangSplat&lt;/span&gt;&lt;span style=&quot;font-size: 10px; font-family: 微软雅黑; color: black; font-weight: bold; font-style: normal;&quot;&gt;需要一个场景训练一次、渲染一次&lt;/span&gt;&lt;/p&gt;" style="text;whiteSpace=wrap;html=1;fontSize=10;" vertex="1" parent="1">
          <mxGeometry x="10" y="100" width="210" height="30" as="geometry" />
        </mxCell>
      </root>
    </mxGraphModel>
  </diagram>
</mxfile>
